<svg width="339" height="70" viewBox="0 0 339 70" fill="none" xmlns="http://www.w3.org/2000/svg">
<rect width="339" height="70" rx="35" fill="black" fill-opacity="0.2"/>
<path d="M56.5454 23L61.9126 40.5781H62.1118L67.479 23H73.9712L65.8735 47H58.1509L50.0532 23H56.5454ZM76.5552 47V29H82.2856V47H76.5552ZM79.4263 26.9023C78.6216 26.9023 77.9302 26.6367 77.3521 26.1055C76.7739 25.5664 76.4849 24.918 76.4849 24.1602C76.4849 23.4102 76.7739 22.7695 77.3521 22.2383C77.9302 21.6992 78.6216 21.4297 79.4263 21.4297C80.2388 21.4297 80.9302 21.6992 81.5005 22.2383C82.0786 22.7695 82.3677 23.4102 82.3677 24.1602C82.3677 24.918 82.0786 25.5664 81.5005 26.1055C80.9302 26.6367 80.2388 26.9023 79.4263 26.9023ZM92.5073 47.2578C91.1792 47.2578 89.9722 46.9141 88.8862 46.2266C87.8003 45.5391 86.9331 44.5078 86.2847 43.1328C85.6362 41.7578 85.312 40.0508 85.312 38.0117C85.312 35.8945 85.6479 34.1523 86.3198 32.7852C86.9917 31.418 87.8706 30.4062 88.9565 29.75C90.0503 29.0937 91.2261 28.7656 92.4839 28.7656C93.4292 28.7656 94.2378 28.9297 94.9097 29.2578C95.5815 29.5781 96.1362 29.9922 96.5737 30.5C97.0112 31.0078 97.3433 31.5352 97.5698 32.082H97.687V23H103.417V47H97.7456V44.082H97.5698C97.3276 44.6367 96.9839 45.1562 96.5386 45.6406C96.0933 46.125 95.5347 46.5156 94.8628 46.8125C94.1987 47.1094 93.4136 47.2578 92.5073 47.2578ZM94.4995 42.793C95.1948 42.793 95.7886 42.5977 96.2808 42.207C96.7729 41.8086 97.1519 41.25 97.4175 40.5312C97.6831 39.8125 97.8159 38.9687 97.8159 38C97.8159 37.0156 97.6831 36.168 97.4175 35.457C97.1597 34.7461 96.7808 34.1992 96.2808 33.8164C95.7886 33.4336 95.1948 33.2422 94.4995 33.2422C93.7886 33.2422 93.187 33.4375 92.6948 33.8281C92.2026 34.2187 91.8276 34.7695 91.5698 35.4805C91.3198 36.1914 91.1948 37.0312 91.1948 38C91.1948 38.9687 91.3237 39.8125 91.5815 40.5312C91.8394 41.25 92.2104 41.8086 92.6948 42.207C93.187 42.5977 93.7886 42.793 94.4995 42.793ZM115.456 47.3398C113.573 47.3398 111.948 46.9688 110.581 46.2266C109.221 45.4766 108.174 44.4102 107.44 43.0273C106.713 41.6367 106.35 39.9844 106.35 38.0703C106.35 36.2109 106.717 34.5859 107.452 33.1953C108.186 31.7969 109.221 30.7109 110.557 29.9375C111.893 29.1562 113.467 28.7656 115.28 28.7656C116.561 28.7656 117.733 28.9648 118.795 29.3633C119.858 29.7617 120.776 30.3516 121.549 31.1328C122.323 31.9141 122.924 32.8789 123.354 34.0273C123.784 35.168 123.999 36.4766 123.999 37.9531V39.3828H108.354V36.0547H118.667C118.659 35.4453 118.514 34.9023 118.233 34.4258C117.952 33.9492 117.565 33.5781 117.073 33.3125C116.588 33.0391 116.03 32.9023 115.397 32.9023C114.756 32.9023 114.182 33.0469 113.674 33.3359C113.167 33.6172 112.764 34.0039 112.467 34.4961C112.17 34.9805 112.014 35.5312 111.999 36.1484V39.5352C111.999 40.2695 112.143 40.9141 112.432 41.4687C112.721 42.0156 113.131 42.4414 113.663 42.7461C114.194 43.0508 114.827 43.2031 115.561 43.2031C116.069 43.2031 116.53 43.1328 116.944 42.9922C117.358 42.8516 117.713 42.6445 118.01 42.3711C118.307 42.0977 118.53 41.7617 118.678 41.3633L123.94 41.5156C123.721 42.6953 123.241 43.7227 122.499 44.5977C121.764 45.4648 120.799 46.1406 119.604 46.625C118.409 47.1016 117.026 47.3398 115.456 47.3398ZM135.328 47.3398C133.437 47.3398 131.812 46.9531 130.453 46.1797C129.101 45.3984 128.058 44.3125 127.324 42.9219C126.597 41.5234 126.234 39.9023 126.234 38.0586C126.234 36.207 126.597 34.5859 127.324 33.1953C128.058 31.7969 129.101 30.7109 130.453 29.9375C131.812 29.1562 133.437 28.7656 135.328 28.7656C137.218 28.7656 138.839 29.1562 140.191 29.9375C141.55 30.7109 142.593 31.7969 143.32 33.1953C144.054 34.5859 144.421 36.207 144.421 38.0586C144.421 39.9023 144.054 41.5234 143.32 42.9219C142.593 44.3125 141.55 45.3984 140.191 46.1797C138.839 46.9531 137.218 47.3398 135.328 47.3398ZM135.363 43.0156C136.05 43.0156 136.632 42.8047 137.109 42.3828C137.585 41.9609 137.949 41.375 138.199 40.625C138.457 39.875 138.585 39.0078 138.585 38.0234C138.585 37.0234 138.457 36.1484 138.199 35.3984C137.949 34.6484 137.585 34.0625 137.109 33.6406C136.632 33.2187 136.05 33.0078 135.363 33.0078C134.652 33.0078 134.05 33.2187 133.558 33.6406C133.074 34.0625 132.703 34.6484 132.445 35.3984C132.195 36.1484 132.07 37.0234 132.07 38.0234C132.07 39.0078 132.195 39.875 132.445 40.625C132.703 41.375 133.074 41.9609 133.558 42.3828C134.05 42.8047 134.652 43.0156 135.363 43.0156ZM150.281 53.75C149.593 53.75 148.945 53.6953 148.335 53.5859C147.726 53.4844 147.203 53.3477 146.765 53.1758L148.031 49.0156C148.593 49.2031 149.101 49.3125 149.554 49.3437C150.015 49.375 150.41 49.3008 150.738 49.1211C151.074 48.9492 151.332 48.6406 151.511 48.1953L151.734 47.6562L145.335 29H151.335L154.652 41.8438H154.839L158.203 29H164.238L157.453 48.7227C157.125 49.707 156.66 50.5742 156.058 51.3242C155.464 52.082 154.695 52.6758 153.75 53.1055C152.812 53.5352 151.656 53.75 150.281 53.75ZM178.048 39.2305V29H183.767V47H178.306V43.6484H178.119C177.72 44.75 177.041 45.625 176.08 46.2734C175.126 46.9141 173.974 47.2344 172.623 47.2344C171.396 47.2344 170.318 46.9531 169.388 46.3906C168.458 45.8281 167.736 45.043 167.22 44.0352C166.705 43.0195 166.443 41.832 166.435 40.4727V29H172.166V39.3477C172.173 40.3242 172.431 41.0937 172.939 41.6562C173.447 42.2187 174.138 42.5 175.013 42.5C175.583 42.5 176.095 42.375 176.548 42.125C177.009 41.8672 177.373 41.4961 177.638 41.0117C177.912 40.5195 178.048 39.9258 178.048 39.2305ZM217.157 35C217.157 37.6406 216.649 39.8789 215.633 41.7148C214.618 43.5508 213.243 44.9453 211.508 45.8984C209.782 46.8516 207.844 47.3281 205.696 47.3281C203.54 47.3281 201.598 46.8477 199.872 45.8867C198.145 44.9258 196.774 43.5312 195.758 41.7031C194.75 39.8672 194.247 37.6328 194.247 35C194.247 32.3594 194.75 30.1211 195.758 28.2852C196.774 26.4492 198.145 25.0547 199.872 24.1016C201.598 23.1484 203.54 22.6719 205.696 22.6719C207.844 22.6719 209.782 23.1484 211.508 24.1016C213.243 25.0547 214.618 26.4492 215.633 28.2852C216.649 30.1211 217.157 32.3594 217.157 35ZM211.227 35C211.227 33.4375 211.004 32.1172 210.559 31.0391C210.122 29.9609 209.489 29.1445 208.661 28.5898C207.84 28.0352 206.852 27.7578 205.696 27.7578C204.547 27.7578 203.559 28.0352 202.731 28.5898C201.903 29.1445 201.266 29.9609 200.821 31.0391C200.383 32.1172 200.165 33.4375 200.165 35C200.165 36.5625 200.383 37.8828 200.821 38.9609C201.266 40.0391 201.903 40.8555 202.731 41.4102C203.559 41.9648 204.547 42.2422 205.696 42.2422C206.852 42.2422 207.84 41.9648 208.661 41.4102C209.489 40.8555 210.122 40.0391 210.559 38.9609C211.004 37.8828 211.227 36.5625 211.227 35ZM224.047 53.75C223.36 53.75 222.711 53.6953 222.102 53.5859C221.493 53.4844 220.969 53.3477 220.532 53.1758L221.797 49.0156C222.36 49.2031 222.868 49.3125 223.321 49.3437C223.782 49.375 224.176 49.3008 224.504 49.1211C224.84 48.9492 225.098 48.6406 225.278 48.1953L225.5 47.6562L219.102 29H225.102L228.418 41.8438H228.606L231.969 29H238.004L231.219 48.7227C230.891 49.707 230.426 50.5742 229.825 51.3242C229.231 52.082 228.461 52.6758 227.516 53.1055C226.579 53.5352 225.422 53.75 224.047 53.75ZM245.932 36.7344V47H240.202V29H245.651V32.3047H245.85C246.249 31.2031 246.928 30.3398 247.889 29.7148C248.85 29.082 249.995 28.7656 251.323 28.7656C252.588 28.7656 253.686 29.0508 254.616 29.6211C255.553 30.1836 256.28 30.9727 256.795 31.9883C257.319 32.9961 257.577 34.1758 257.569 35.5273V47H251.838V36.6523C251.846 35.6523 251.592 34.8711 251.077 34.3086C250.569 33.7461 249.862 33.4648 248.956 33.4648C248.354 33.4648 247.823 33.5977 247.362 33.8633C246.909 34.1211 246.557 34.4922 246.307 34.9766C246.065 35.4609 245.94 36.0469 245.932 36.7344ZM266.191 47.3047C265.042 47.3047 264.023 47.1133 263.132 46.7305C262.25 46.3398 261.55 45.7539 261.035 44.9727C260.527 44.1836 260.273 43.1953 260.273 42.0078C260.273 41.0078 260.449 40.1641 260.8 39.4766C261.152 38.7891 261.636 38.2305 262.253 37.8008C262.871 37.3711 263.582 37.0469 264.386 36.8281C265.191 36.6016 266.05 36.4492 266.964 36.3711C267.988 36.2773 268.812 36.1797 269.437 36.0781C270.062 35.9688 270.515 35.8164 270.796 35.6211C271.085 35.418 271.23 35.1328 271.23 34.7656V34.707C271.23 34.1055 271.023 33.6406 270.609 33.3125C270.195 32.9844 269.636 32.8203 268.933 32.8203C268.175 32.8203 267.566 32.9844 267.105 33.3125C266.644 33.6406 266.351 34.0937 266.226 34.6719L260.941 34.4844C261.097 33.3906 261.5 32.4141 262.148 31.5547C262.804 30.6875 263.703 30.0078 264.843 29.5156C265.992 29.0156 267.371 28.7656 268.98 28.7656C270.128 28.7656 271.187 28.9023 272.156 29.1758C273.125 29.4414 273.968 29.832 274.687 30.3477C275.406 30.8555 275.96 31.4805 276.351 32.2227C276.75 32.9648 276.949 33.8125 276.949 34.7656V47H271.558V44.4922H271.417C271.097 45.1016 270.687 45.6172 270.187 46.0391C269.695 46.4609 269.113 46.7773 268.441 46.9883C267.777 47.1992 267.027 47.3047 266.191 47.3047ZM267.96 43.5547C268.578 43.5547 269.132 43.4297 269.625 43.1797C270.125 42.9297 270.523 42.5859 270.82 42.1484C271.117 41.7031 271.265 41.1875 271.265 40.6016V38.8906C271.101 38.9766 270.902 39.0547 270.667 39.125C270.441 39.1953 270.191 39.2617 269.917 39.3242C269.644 39.3867 269.363 39.4414 269.074 39.4883C268.785 39.5352 268.507 39.5781 268.242 39.6172C267.703 39.7031 267.242 39.8359 266.859 40.0156C266.484 40.1953 266.195 40.4297 265.992 40.7187C265.796 41 265.699 41.3359 265.699 41.7266C265.699 42.3203 265.91 42.7734 266.332 43.0859C266.761 43.3984 267.304 43.5547 267.96 43.5547ZM290.613 29V33.2187H279.257V29H290.613ZM281.636 24.6875H287.367V41.3398C287.367 41.6914 287.421 41.9766 287.531 42.1953C287.648 42.4062 287.816 42.5586 288.035 42.6523C288.253 42.7383 288.515 42.7813 288.82 42.7813C289.039 42.7813 289.269 42.7617 289.511 42.7227C289.761 42.6758 289.949 42.6367 290.074 42.6055L290.941 46.7422C290.667 46.8203 290.281 46.918 289.781 47.0352C289.289 47.1523 288.699 47.2266 288.011 47.2578C286.667 47.3203 285.515 47.1641 284.554 46.7891C283.601 46.4062 282.871 45.8125 282.363 45.0078C281.863 44.2031 281.621 43.1914 281.636 41.9727V24.6875Z" fill="white"/>
</svg>
